<?xml version="1.0" encoding="UTF-8" standalone="no"?>
<!-- Created with Inkscape (http://www.inkscape.org/) -->

<svg
   xmlns:dc="http://purl.org/dc/elements/1.1/"
   xmlns:cc="http://creativecommons.org/ns#"
   xmlns:rdf="http://www.w3.org/1999/02/22-rdf-syntax-ns#"
   xmlns:svg="http://www.w3.org/2000/svg"
   xmlns="http://www.w3.org/2000/svg"
   xmlns:sodipodi="http://sodipodi.sourceforge.net/DTD/sodipodi-0.dtd"
   xmlns:inkscape="http://www.inkscape.org/namespaces/inkscape"
   width="1000"
   height="1019.9055"
   viewBox="0 0 264.58332 269.85"
   version="1.1"
   id="svg8"
   inkscape:version="0.92.4 (5da689c313, 2019-01-14)"
   sodipodi:docname="A.svg">
  <defs
     id="defs2">
    <clipPath
       clipPathUnits="userSpaceOnUse"
       id="clipPath2648">
      <path
         d="M 0,1190.55 H 841.89 V 0 H 0 Z"
         id="path2646"
         inkscape:connector-curvature="0" />
    </clipPath>
  </defs>
  <sodipodi:namedview
     id="base"
     pagecolor="#ffffff"
     bordercolor="#666666"
     borderopacity="1.0"
     inkscape:pageopacity="0.0"
     inkscape:pageshadow="2"
     inkscape:zoom="0.061871843"
     inkscape:cx="1771.2145"
     inkscape:cy="298.48014"
     inkscape:document-units="px"
     inkscape:current-layer="layer1"
     showgrid="false"
     units="px"
     inkscape:window-width="1920"
     inkscape:window-height="1017"
     inkscape:window-x="1912"
     inkscape:window-y="-8"
     inkscape:window-maximized="1"
     fit-margin-top="0"
     fit-margin-left="0"
     fit-margin-right="0"
     fit-margin-bottom="0">
    <inkscape:grid
       type="xygrid"
       id="grid2814"
       originx="-277.03404"
       originy="476.95663" />
  </sodipodi:namedview>
  <metadata
     id="metadata5">
    <rdf:RDF>
      <cc:Work
         rdf:about="">
        <dc:format>image/svg+xml</dc:format>
        <dc:type
           rdf:resource="http://purl.org/dc/dcmitype/StillImage" />
        <dc:title></dc:title>
      </cc:Work>
    </rdf:RDF>
  </metadata>
  <g
     inkscape:label="Layer 1"
     inkscape:groupmode="layer"
     id="layer1"
     transform="translate(-158.19694,-214.25552)">
    <path
       style="opacity:1;fill:#0084aa;fill-opacity:1;stroke:none;stroke-width:0.01163815;stroke-linecap:butt;stroke-miterlimit:2.61310005;stroke-dasharray:none;stroke-opacity:1"
       d="m 173.40465,484.10551 c 9.45164,0 14.19955,-5.64039 14.19955,-11.63295 0,-14.53238 -20.71486,-10.15732 -20.71486,-15.49328 0,-2.60536 3.42427,-3.00026 5.59885,-3.00026 3.36436,0 5.48418,0.95969 6.63406,3.10325 l 6.88566,-3.38982 c -2.85557,-5.14311 -7.36657,-7.06109 -13.7622,-7.06109 -9.52061,0 -12.93675,5.52357 -12.93675,10.32195 0,13.70212 20.70446,8.04132 20.70446,15.56082 0,0.89475 -0.58266,4.27079 -6.64517,4.27079 -4.4525,0 -6.35061,-1.38853 -7.54441,-4.43667 l -7.6269,1.4622 c 2.21607,6.42812 6.62292,10.29506 15.20771,10.29506 z"
       id="path2838"
       inkscape:connector-curvature="0"
       sodipodi:nodetypes="ccccccccccccc" />
    <path
       style="opacity:1;fill:#0084aa;fill-opacity:1;stroke:none;stroke-width:0.02909538;stroke-linecap:butt;stroke-miterlimit:2.61310005;stroke-dasharray:none;stroke-opacity:1"
       d="m 206.44967,446.62444 c -7.18243,0 -15.98678,2.98668 -15.98678,18.6333 0,3.88287 -0.32516,18.8374 16.01791,18.8374 16.46489,0 15.92246,-15.3594 15.92246,-18.67579 0,-3.10165 0.62195,-18.79491 -15.95359,-18.79491 z m -0.1039,7.36224 c 8.12329,0 8.37197,6.14944 8.37197,11.46196 0,4.42704 -0.0146,11.33107 -8.35106,11.33107 -8.29723,0 -8.20329,-7.00825 -8.20329,-11.41175 0,-5.332 0.25526,-11.38128 8.18238,-11.38128 z"
       id="path2840"
       inkscape:connector-curvature="0" />
    <path
       style="opacity:1;fill:#0084aa;fill-opacity:1;stroke:none;stroke-width:0.02909538;stroke-linecap:butt;stroke-miterlimit:2.61310005;stroke-dasharray:none;stroke-opacity:1"
       d="m 234.65315,483.41657 h -7.85576 v -36.1946 h 7.85576 v 1.31979 c 0,0 1.83922,-1.85898 6.39247,-1.85898 5.79306,0 9.16467,1.79006 10.8829,3.67728 1.56866,-1.69908 4.74766,-3.65768 10.33922,-3.65768 10.91148,0 14.63187,6.4551 14.63187,14.83448 v 21.87971 h -7.79758 v -21.53055 c 0,-5.62387 -1.80561,-8.32543 -6.79792,-8.32543 -3.69424,0 -6.58594,2.29386 -6.58594,7.16161 v 22.69437 h -7.79756 v -21.69306 c 0,-4.71616 -1.2043,-8.15253 -7.06393,-8.15253 -4.04572,0 -6.20353,2.15324 -6.20353,5.17273 z"
       id="path2844"
       inkscape:connector-curvature="0"
       sodipodi:nodetypes="cccccccccccccccccccc" />
    <path
       style="opacity:1;fill:#0084aa;fill-opacity:1;stroke:none;stroke-width:0.02909538;stroke-linecap:butt;stroke-miterlimit:2.61310005;stroke-dasharray:none;stroke-opacity:1"
       d="m 307.74902,431.39407 h -7.04106 v 42.59089 c 0,4.975 1.541,9.43161 9.83422,9.43161 v -7.56478 h -0.93105 c -1.64619,0 -1.86211,-0.63089 -1.86211,-1.74575 z"
       id="path2846"
       inkscape:connector-curvature="0"
       sodipodi:nodetypes="cccccccc" />
    <path
       style="opacity:1;fill:#0084aa;fill-opacity:1;stroke:none;stroke-width:0.02909538;stroke-linecap:butt;stroke-miterlimit:2.61310005;stroke-dasharray:none;stroke-opacity:1"
       d="m 325.16998,483.41657 h -7.68116 v -36.77651 h 7.68116 z"
       id="path2848"
       inkscape:connector-curvature="0" />
    <circle
       style="opacity:1;fill:#0084aa;fill-opacity:1;stroke:none;stroke-width:0.0399857;stroke-linecap:butt;stroke-miterlimit:2.61310005;stroke-dasharray:none;stroke-opacity:1"
       id="path2850"
       cx="321.37222"
       cy="435.19193"
       r="4.5583701" />
    <path
       style="opacity:1;fill:#0084aa;fill-opacity:1;stroke:none;stroke-width:0.02909538;stroke-linecap:butt;stroke-miterlimit:2.61310005;stroke-dasharray:none;stroke-opacity:1"
       d="m 328.6546,446.64006 h 8.20788 l 9.06705,24.17253 9.14364,-24.17253 h 8.19556 l -14.0734,36.77651 h -6.57496 z"
       id="path2852"
       inkscape:connector-curvature="0"
       sodipodi:nodetypes="cccccccc" />
    <path
       style="opacity:1;fill:#0084aa;fill-opacity:1;stroke:none;stroke-width:0.02909538;stroke-linecap:butt;stroke-miterlimit:2.61310005;stroke-dasharray:none;stroke-opacity:1"
       d="m 374.45349,483.41657 h -7.44842 v -36.42739 h 7.44842 v 1.16382 c 0,0 2.61803,-1.51431 6.89126,-1.51431 4.48002,0 8.2965,1.86346 8.2965,1.86346 v 8.99641 c 0,0 -4.66624,-3.54156 -8.50223,-3.54156 -4.7653,0 -6.68553,3.07999 -6.68553,5.45916 z"
       id="path2854"
       inkscape:connector-curvature="0"
       sodipodi:nodetypes="ccccccccccc" />
    <path
       style="opacity:1;fill:#0084aa;fill-opacity:1;stroke:none;stroke-width:0.02909538;stroke-linecap:butt;stroke-miterlimit:2.61310005;stroke-dasharray:none;stroke-opacity:1"
       d="m 408.06418,446.69191 c -6.34785,0 -16.13224,2.56815 -16.13224,18.52763 0,6.87181 1.25518,11.04831 4.69186,14.54404 2.82921,2.62783 6.3492,4.31588 12.11069,4.31588 7.4768,0 11.81778,-3.99068 13.82029,-6.25549 l -6.13069,-4.56685 c -1.68701,1.76714 -3.97612,3.52508 -7.783,3.52508 -7.62894,0 -8.94184,-5.34862 -8.94184,-8.61154 h 23.08102 v -5.09167 c 0,-6.64084 -1.54429,-9.51984 -4.35656,-12.43418 -2.81227,-2.70656 -6.35223,-3.9529 -10.35953,-3.9529 z m -0.15038,7.39864 c 4.17105,0 7.0034,2.5711 7.06902,6.68989 h -15.1296 c 0.71077,-3.13737 2.40825,-6.68989 8.06058,-6.68989 z"
       id="path2856"
       inkscape:connector-curvature="0" />
    <path
       style="opacity:1;fill:#0084aa;fill-opacity:1;stroke:none;stroke-width:0.08744054;stroke-linecap:butt;stroke-miterlimit:2.61310005;stroke-dasharray:none;stroke-opacity:1"
       d="m 288.87325,401.70488 c 40.672,0 71.32511,-33.05133 71.32511,-71.56801 0,-39.54139 -30.45043,-71.17053 -66.2462,-71.17053 -15.64904,0 -28.86131,11.51005 -28.86131,27.09469 0,14.63732 10.86544,25.38849 24.45213,26.77734 9.90319,0.66534 16.31141,8.70733 16.31141,16.93415 0,9.25114 -7.2722,17.23506 -18.53792,17.23506 -30.34214,0 -56.27617,-27.07355 -56.27617,-61.21154 0,-35.74438 29.1899,-61.42239 60.77875,-61.42239 22.58927,0 44.57324,12.90987 55.66004,31.16997 1.01171,1.63091 1.87803,2.76027 3.40063,2.76027 2.04581,0 2.98109,-1.71639 2.98109,-3.17983 0,-1.61992 -1.96894,-4.69912 -3.15775,-6.93378 -10.07925,-18.902 -31.72432,-33.93476 -58.5405,-33.93476 -40.11613,0 -71.34213,32.45327 -71.34213,71.76372 0,39.95978 30.75045,70.95178 66.04885,70.95178 18.368,0 28.96619,-13.35519 28.96619,-27.07705 0,-19.49718 -17.00221,-26.74912 -24.65837,-26.74912 -5.95961,0 -15.9874,-5.95248 -15.9874,-17.0007 0,-10.51707 8.7303,-17.20705 18.12833,-17.20705 31.07986,0 56.74465,28.50137 56.74465,61.42057 0,34.12084 -27.89052,61.21151 -60.88028,61.21151 -23.79551,0 -44.44457,-13.55831 -55.60264,-31.13571 -0.92967,-1.66135 -1.8828,-2.80218 -3.27677,-2.80218 -1.83444,0 -3.06,1.24516 -3.06,3.23913 0,1.1543 1.01497,2.87537 1.01497,2.87537 10.77556,22.0264 31.89251,37.95909 60.61529,37.95909 z"
       id="path2860"
       inkscape:connector-curvature="0"
       sodipodi:nodetypes="ccccccccccccccccccccccccccc" />
  </g>
</svg>
